<?xml version="1.0" encoding="iso-8859-1"?>
<!-- Generator: Adobe Illustrator 19.0.0, SVG Export Plug-In . SVG Version: 6.00 Build 0)  -->
<svg version="1.1" id="Layer_1" xmlns="http://www.w3.org/2000/svg" xmlns:xlink="http://www.w3.org/1999/xlink" x="0px" y="0px"
	 viewBox="0 0 512 512" style="enable-background:new 0 0 512 512;" xml:space="preserve">
<circle style="fill:#2DA8D2;" cx="256" cy="256" r="256"/>
<path style="fill:#1882AB;" d="M403.728,132.364l-5.584,4.464l-19.216-6.404l-26.056-33.076L340.5,124.932l-17.388,5.492
	l-28.308-33.076l-7.376,32.156h-25.62l-25.06-32.156l-7.88,30.328l-24.704,2.748l-25.488-33.076l-12.94,71.504l-34.768,217.76
	l-20.604,16.708l105.192,105.464c13.18,2.1,26.68,3.216,40.444,3.216c141.388,0,256-114.612,256-256c0-5.244-0.208-10.432-0.52-15.6
	L403.728,132.364z"/>
<path style="fill:#FFFFFF;" d="M414.652,375.528c0,21.52-17.604,39.12-39.124,39.12h-239.06c-21.516,0-39.12-17.6-39.12-39.12
	V161.376c0-21.516,17.604-39.12,39.12-39.12h239.06c21.52,0,39.124,17.604,39.124,39.12V375.528z"/>
<g>
	<rect x="159.12" y="97.352" style="fill:#2B414D;" width="19.564" height="49.8"/>
	<rect x="217.2" y="97.352" style="fill:#2B414D;" width="19.564" height="49.8"/>
	<rect x="275.248" y="97.352" style="fill:#2B414D;" width="19.564" height="49.8"/>
	<rect x="333.32" y="97.352" style="fill:#2B414D;" width="19.564" height="49.8"/>
</g>
<g>
	<rect x="163.456" y="206.332" style="fill:#BBBDBF;" width="185.08" height="19.564"/>
	<rect x="163.456" y="255.708" style="fill:#BBBDBF;" width="185.08" height="19.564"/>
	<rect x="163.456" y="305.12" style="fill:#BBBDBF;" width="185.08" height="19.564"/>
	<rect x="163.456" y="354.48" style="fill:#BBBDBF;" width="185.08" height="19.564"/>
</g>
<g>
</g>
<g>
</g>
<g>
</g>
<g>
</g>
<g>
</g>
<g>
</g>
<g>
</g>
<g>
</g>
<g>
</g>
<g>
</g>
<g>
</g>
<g>
</g>
<g>
</g>
<g>
</g>
<g>
</g>
</svg>
