<svg id="Capa_1" enable-background="new 0 0 512 512" height="512" viewBox="0 0 512 512" width="512" xmlns="http://www.w3.org/2000/svg" xmlns:xlink="http://www.w3.org/1999/xlink"><linearGradient id="SVGID_1_" gradientUnits="userSpaceOnUse" x1="256" x2="256" y1="452" y2="75.05"><stop offset="0" stop-color="#ffbef9"/><stop offset="1" stop-color="#fff1ff"/></linearGradient><linearGradient id="SVGID_2_" gradientUnits="userSpaceOnUse" x1="256" x2="256" y1="512" y2="0"><stop offset="0" stop-color="#a93aff"/><stop offset="1" stop-color="#ff81ff"/></linearGradient><g id="cloud_computing_Recovery_2_"><g><g><path d="m256 330c-8.291 0-15 6.709-15 15v92c0 8.291 6.709 15 15 15s15-6.709 15-15v-92c0-8.291-6.709-15-15-15zm181 92h-76v-77c0-8.291-6.709-15-15-15s-15 6.709-15 15v92c0 8.291 6.709 15 15 15h91c8.291 0 15-6.709 15-15s-6.709-15-15-15zm-271-92c-8.291 0-15 6.709-15 15v77h-76c-8.291 0-15 6.709-15 15s6.709 15 15 15h91c8.291 0 15-6.709 15-15v-92c0-8.291-6.709-15-15-15zm210-135c0-35.552-15.615-69.067-42.861-91.948-26.55-22.239-62.341-32.456-98.672-26.177-49.512 8.716-89.443 49.585-97.031 99.404-3.135 20.537-1.318 41.836 5.127 61.597-7.383 4.321-12.803 11.763-14.385 20.757-2.871 16.289 8.027 31.875 24.316 34.731l41.689 7.354c17.01 3.207 27.777-6.363 34.482-22.236l7.705-43.813c2.962-16.633-8.236-31.956-24.229-34.79-3.003.045-7.246-1.829-15.85 1.436-.498-5.42-.352-10.781.439-15.981 3.721-24.36 23.965-45.117 48.164-49.351 18.868-3.291 36.211 1.735 49.658 13.037 13.626 11.454 21.448 28.211 21.448 45.98 0 32.373-26.309 59.282-58.682 59.985-16.523.381-29.678 14.121-29.326 30.645.352 16.187 13.799 29.355 30 29.355 98.643 0 118.008-97.645 118.008-119.985z" fill="url(#SVGID_1_)"/></g></g><g><g><path d="m512 240c0-42.744-24.232-82.324-61.029-103.638.015-.454.029-.908.029-1.362 0-57.891-47.109-105-105-105-18.003 0-35.435 4.673-51.152 13.608-25.547-27.876-60.865-43.608-98.848-43.608-74.443 0-135 60.557-135 135 0 .454.015.908.029 1.362-36.797 21.328-61.029 60.909-61.029 103.638 0 66.167 54.833 120 121 120h270c66.167 0 121-53.833 121-120zm-254.008 59.985c-8.145 0-14.824-6.504-15-14.678-.176-8.276 6.387-15.132 14.678-15.322 40.43-.879 73.33-34.526 73.33-74.985 0-22.222-9.771-43.169-26.807-57.466-17.256-14.502-39.302-20.317-61.919-16.318-30.308 5.303-55.693 31.318-60.366 61.86-2.758 18.038 1.003 36.573 8.692 52.154l1.489-8.428c1.436-8.159 9.214-13.638 17.373-12.158 8.159 1.436 13.608 9.214 12.158 17.373l-7.368 41.792c-1.484 8.412-10.151 13.505-17.373 12.158l-41.777-7.368c-8.159-1.436-13.608-9.214-12.158-17.373 1.436-8.159 9.199-13.696 17.373-12.158l3.25.573c-10.655-21.162-15.066-46.527-11.307-71.105 6.65-43.564 41.543-79.277 84.829-86.88 31.084-5.405 62.563 2.9 86.396 22.896 23.848 20.023 37.515 49.349 37.515 80.448 0 87.108-82.779 104.985-103.008 104.985zm-212.992 92.015c-24.814 0-45 20.186-45 45s20.186 45 45 45 45-20.186 45-45-20.186-45-45-45zm422 0c-24.814 0-45 20.186-45 45s20.186 45 45 45 45-20.186 45-45-20.186-45-45-45zm-211 30c-24.814 0-45 20.186-45 45s20.186 45 45 45 45-20.186 45-45-20.186-45-45-45z" fill="url(#SVGID_2_)"/></g></g></g></svg>